<svg xmlns="http://www.w3.org/2000/svg" width="82" height="82" fill="none" viewBox="0 0 82 82">
    <circle cx="40.837" cy="41" r="40.837" fill="#E7F0F7"/>
    <g clip-path="url(#a)">
        <path fill="#C9C1F5" d="M40.837 75.167c18.64 0 33.75-15.297 33.75-34.167S59.477 6.833 40.837 6.833 7.087 22.13 7.087 41s15.11 34.167 33.75 34.167z"/>
        <path fill="#fff" d="M40.837 10.933c8.6.001 16.875 3.325 23.135 9.294 6.26 5.97 10.033 14.133 10.549 22.823.04-.679.066-1.361.066-2.05 0-9.062-3.556-17.752-9.885-24.16-6.33-6.407-14.914-10.007-23.865-10.007-8.951 0-17.536 3.6-23.865 10.007-6.33 6.408-9.885 15.098-9.885 24.16 0 .689.026 1.371.066 2.05.515-8.69 4.288-16.854 10.549-22.823 6.26-5.969 14.535-9.293 23.135-9.294z" opacity=".5"/>
        <path fill="#2C4B75" d="M40.837 71.067c-8.6-.001-16.875-3.325-23.135-9.294-6.26-5.97-10.034-14.133-10.55-22.823-.04.679-.065 1.361-.065 2.05 0 9.062 3.556 17.752 9.885 24.16 6.33 6.407 14.914 10.007 23.865 10.007 8.95 0 17.535-3.6 23.865-10.008C71.03 58.752 74.587 50.062 74.587 41c0-.689-.026-1.371-.066-2.05-.516 8.69-4.289 16.854-10.549 22.823-6.26 5.969-14.535 9.293-23.135 9.294z" opacity=".2"/>
        <path fill="#D4EDFF" d="M40.837 69.7c15.657 0 28.35-12.85 28.35-28.7s-12.693-28.7-28.35-28.7c-15.658 0-28.35 12.85-28.35 28.7s12.693 28.7 28.35 28.7z"/>
        <path fill="#fff" d="M40.837 43.733c1.491 0 2.7-1.223 2.7-2.733s-1.209-2.733-2.7-2.733-2.7 1.223-2.7 2.733 1.209 2.733 2.7 2.733z"/>
        <path stroke="#6D6DAA" stroke-linecap="round" stroke-linejoin="round" stroke-width="2" d="M40.837 43.733c1.491 0 2.7-1.223 2.7-2.733s-1.209-2.733-2.7-2.733-2.7 1.223-2.7 2.733 1.209 2.733 2.7 2.733zM40.837 24.6v13.667M38.137 41h-12.15"/>
        <path fill="#fff" d="M24.469 64.407l39.49-39.977a28.743 28.743 0 0 0-2.587-3.18L21.328 61.788a28.534 28.534 0 0 0 3.14 2.619zM40.837 12.3a28.07 28.07 0 0 0-15.054 4.369 28.557 28.557 0 0 0-10.46 11.798 28.984 28.984 0 0 0-2.668 15.622 28.867 28.867 0 0 0 5.938 14.67L58.38 18.481A27.987 27.987 0 0 0 40.837 12.3z" opacity=".5"/>
        <path fill="#2C4B75" d="M40.837 16.4a28.143 28.143 0 0 1 19.303 7.699c5.241 4.945 8.437 11.716 8.945 18.951.047-.68.102-1.358.102-2.05 0-7.612-2.987-14.912-8.304-20.294-5.316-5.382-12.527-8.406-20.046-8.406-7.52 0-14.73 3.024-20.047 8.406-5.316 5.382-8.303 12.682-8.303 20.294 0 .692.054 1.37.102 2.05.507-7.235 3.703-14.006 8.945-18.951A28.143 28.143 0 0 1 40.837 16.4z" opacity=".2"/>
        <path stroke="#6D6DAA" stroke-linecap="round" stroke-linejoin="round" stroke-width="2" d="M40.837 75.167c18.64 0 33.75-15.297 33.75-34.167S59.477 6.833 40.837 6.833 7.087 22.13 7.087 41s15.11 34.167 33.75 34.167z"/>
        <path stroke="#6D6DAA" stroke-linecap="round" stroke-linejoin="round" stroke-width="2" d="M40.837 69.7c15.657 0 28.35-12.85 28.35-28.7s-12.693-28.7-28.35-28.7c-15.658 0-28.35 12.85-28.35 28.7s12.693 28.7 28.35 28.7z"/>
    </g>
    <defs>
        <clipPath id="a">
            <path fill="#fff" d="M0 0h81v82H0z" transform="translate(.337)"/>
        </clipPath>
    </defs>
</svg>
