<svg xmlns="http://www.w3.org/2000/svg" width="91" height="88" fill="none" viewBox="0 0 91 88">
    <circle cx="41.029" cy="43.959" r="41.029" fill="#E7F0F7"/>
    <path fill="#FF9797" d="M73.416 13.188H8.943a2.93 2.93 0 0 0-2.93 2.93v11.723h70.334V16.118a2.93 2.93 0 0 0-2.93-2.93z"/>
    <path fill="#750000" d="M76.347 23.445H6.012v4.396h70.335v-4.396z" opacity=".2"/>
    <path fill="#fff" d="M73.416 13.188H8.943a2.93 2.93 0 0 0-2.93 2.93v4.396a2.93 2.93 0 0 1 2.93-2.93h64.473a2.93 2.93 0 0 1 2.931 2.93v-4.396a2.93 2.93 0 0 0-2.93-2.93z" opacity=".5"/>
    <path fill="#fff" d="M6.012 68.87a2.93 2.93 0 0 0 2.931 2.93h64.473a2.93 2.93 0 0 0 2.931-2.93V27.84H6.012v41.03z"/>
    <path fill="#2C4B75" d="M73.416 67.404H8.943a2.93 2.93 0 0 1-2.93-2.93v4.395a2.93 2.93 0 0 0 2.93 2.93h64.473a2.929 2.929 0 0 0 2.931-2.93v-4.396a2.93 2.93 0 0 1-2.93 2.93z" opacity=".2"/>
    <path fill="#6D6DAA" d="M76.347 43.96a1.465 1.465 0 0 1-1.465-1.466V27.84a1.466 1.466 0 0 1 2.93 0v14.653a1.465 1.465 0 0 1-1.465 1.465zM47.04 73.265H8.944a4.4 4.4 0 0 1-4.396-4.396V27.841a1.466 1.466 0 0 1 2.93 0v41.028a1.467 1.467 0 0 0 1.466 1.466h38.098a1.465 1.465 0 1 1 0 2.93z"/>
    <path fill="#6D6DAA" d="M76.347 29.306H6.012a1.465 1.465 0 0 1-1.465-1.465V16.118a4.4 4.4 0 0 1 4.396-4.395h64.473a4.4 4.4 0 0 1 4.396 4.395v11.723a1.465 1.465 0 0 1-1.465 1.465zm-68.87-2.93h67.405V16.117a1.467 1.467 0 0 0-1.466-1.465H8.943a1.467 1.467 0 0 0-1.465 1.465v10.258z"/>
    <g fill="#6D6DAA" opacity=".5">
        <path d="M67.555 38.098a1.468 1.468 0 0 1-.557-.117 1.325 1.325 0 0 1-.791-.792 1.464 1.464 0 0 1-.117-.556c.005-.388.157-.76.425-1.04a1.512 1.512 0 0 1 2.08 0c.268.28.42.652.425 1.04-.002.191-.042.38-.117.556a1.53 1.53 0 0 1-.308.484c-.28.267-.652.419-1.04.425zM58.763 38.098a1.465 1.465 0 0 1-.557-.117 1.324 1.324 0 0 1-.791-.792 1.462 1.462 0 0 1-.117-.556c.005-.388.157-.76.425-1.04a1.69 1.69 0 0 1 .483-.31 1.471 1.471 0 0 1 1.114 0c.178.075.341.18.484.31.267.28.419.652.425 1.04-.003.191-.042.38-.118.556a1.32 1.32 0 0 1-.79.791 1.464 1.464 0 0 1-.558.118zM49.971 46.89a1.464 1.464 0 0 1-.557-.118 1.325 1.325 0 0 1-.791-.79 1.388 1.388 0 0 1 0-1.115 1.33 1.33 0 0 1 .791-.791 1.471 1.471 0 0 1 1.114 0 1.325 1.325 0 0 1 .791.791 1.38 1.38 0 0 1 0 1.114 1.321 1.321 0 0 1-.79.791 1.464 1.464 0 0 1-.558.118zM41.18 46.89a1.542 1.542 0 0 1-1.04-.425 1.696 1.696 0 0 1-.309-.484 1.388 1.388 0 0 1 0-1.114c.075-.177.179-.34.308-.483a1.534 1.534 0 0 1 2.081 0c.13.142.233.306.308.483a1.382 1.382 0 0 1 0 1.114 1.704 1.704 0 0 1-.308.484c-.281.267-.652.419-1.04.425zM32.388 46.89a1.452 1.452 0 0 1-1.349-2.023 1.69 1.69 0 0 1 .309-.483 1.488 1.488 0 0 1 1.333-.395c.091.015.18.045.264.087.09.029.174.074.249.132.088.059.16.117.234.176.268.281.42.653.425 1.04a2.262 2.262 0 0 1-.029.293.958.958 0 0 1-.088.264 1.11 1.11 0 0 1-.132.264l-.176.22c-.28.267-.652.419-1.04.425zM23.596 46.89a1.452 1.452 0 0 1-1.349-2.023 1.69 1.69 0 0 1 .309-.483 1.534 1.534 0 0 1 2.08 0c.13.142.233.306.308.483.082.174.123.365.117.557a1.452 1.452 0 0 1-1.465 1.466zM14.805 46.89a1.45 1.45 0 1 1 1.04-.425c-.281.267-.653.419-1.04.425zM41.18 55.682a1.542 1.542 0 0 1-1.04-.425 2.337 2.337 0 0 1-.177-.22 1.11 1.11 0 0 1-.132-.264.93.93 0 0 1-.087-.264 1.472 1.472 0 1 1 1.436 1.173zM32.388 55.682a1.542 1.542 0 0 1-1.04-.425 1.693 1.693 0 0 1-.309-.484 1.464 1.464 0 0 1-.116-.557 1.465 1.465 0 1 1 2.505 1.04c-.073.06-.146.118-.234.176a.812.812 0 0 1-.25.132.958.958 0 0 1-.263.088 2.038 2.038 0 0 1-.293.03zM23.596 55.681a1.45 1.45 0 1 1 1.04-.424c-.28.267-.652.419-1.04.425zM14.804 55.681a1.45 1.45 0 0 1-1.465-1.465c.003-.388.155-.76.425-1.04a1.47 1.47 0 1 1 2.08 2.08c-.279.27-.651.422-1.04.425zM49.972 38.098a1.465 1.465 0 0 1-.558-.117 1.517 1.517 0 0 1-.483-.308 1.54 1.54 0 0 1-.425-1.04c.002-.192.042-.381.117-.558a1.33 1.33 0 0 1 .791-.791 1.471 1.471 0 0 1 1.114 0 1.325 1.325 0 0 1 .791.791c.076.177.115.366.118.558-.006.387-.158.759-.425 1.04-.14.132-.305.237-.484.308a1.465 1.465 0 0 1-.556.117zM41.18 38.098a1.451 1.451 0 1 1 1.04-.425c-.28.267-.652.42-1.04.425zM41.18 64.473a1.451 1.451 0 1 1 1.04-.425c-.28.268-.652.42-1.04.425zM32.388 64.473a1.47 1.47 0 0 1-1.04-2.505 1.49 1.49 0 0 1 1.333-.396c.092.016.18.045.264.087a.81.81 0 0 1 .249.133c.088.058.16.117.234.176.268.28.42.652.425 1.04a2.009 2.009 0 0 1-.029.293.955.955 0 0 1-.088.264 1.116 1.116 0 0 1-.132.264l-.176.22c-.073.058-.146.117-.234.175a.812.812 0 0 1-.25.132.958.958 0 0 1-.263.088 2.037 2.037 0 0 1-.293.03zM23.596 64.473a1.452 1.452 0 1 1 1.04-.425c-.28.268-.652.42-1.04.425zM14.804 64.473a1.452 1.452 0 0 1-1.465-1.465c.003-.388.155-.761.425-1.04a1.471 1.471 0 0 1 2.08 2.08c-.279.27-.651.422-1.04.425z" opacity=".5"/>
    </g>
    <path fill="#fff" d="M70.486 83.522c9.71 0 17.583-7.872 17.583-17.583 0-9.711-7.872-17.584-17.583-17.584-9.712 0-17.584 7.873-17.584 17.584 0 9.71 7.873 17.583 17.584 17.583z"/>
    <path fill="#2C4B75" d="M70.486 79.126a17.576 17.576 0 0 1-17.432-15.385 17.584 17.584 0 1 0 34.864 0 17.576 17.576 0 0 1-17.432 15.385z" opacity=".2"/>
    <path fill="#6D6DAA" d="M70.486 84.988a19.048 19.048 0 1 1 19.049-19.05 19.07 19.07 0 0 1-19.05 19.05zm0-35.168A16.118 16.118 0 1 0 86.604 65.94 16.137 16.137 0 0 0 70.486 49.82z"/>
    <path fill="#6D6DAA" d="M70.486 67.404a1.465 1.465 0 0 1-1.466-1.465v-8.792a1.465 1.465 0 0 1 2.93 0v8.792a1.465 1.465 0 0 1-1.464 1.465z"/>
    <path fill="#6D6DAA" d="M79.278 67.404h-8.792a1.465 1.465 0 1 1 0-2.93h8.791a1.465 1.465 0 0 1 0 2.93z"/>
    <path fill="#CED8EE" d="M26.527 19.049a2.93 2.93 0 0 1-2.93-2.93v-5.862a2.93 2.93 0 0 1 5.86 0v5.861a2.93 2.93 0 0 1-2.93 2.931z"/>
    <path fill="#fff" d="M26.527 11.723a2.929 2.929 0 0 0-2.93 2.93v-4.396a2.93 2.93 0 0 1 5.86 0v4.396a2.93 2.93 0 0 0-2.93-2.93z" opacity=".75"/>
    <path fill="#2C4B75" d="M26.527 14.653a2.93 2.93 0 0 1-2.93-2.93v4.395a2.93 2.93 0 0 0 5.86 0v-4.395a2.93 2.93 0 0 1-2.93 2.93z" opacity=".2"/>
    <path fill="#6D6DAA" d="M26.527 20.514a4.4 4.4 0 0 1-4.396-4.396v-5.86a4.396 4.396 0 1 1 8.792 0v5.86a4.4 4.4 0 0 1-4.396 4.396zm0-11.722a1.467 1.467 0 0 0-1.466 1.465v5.861a1.465 1.465 0 0 0 2.931 0v-5.86a1.468 1.468 0 0 0-1.465-1.466z"/>
    <path fill="#CED8EE" d="M55.833 19.049a2.93 2.93 0 0 1-2.931-2.93v-5.862a2.93 2.93 0 0 1 5.861 0v5.861a2.93 2.93 0 0 1-2.93 2.931z"/>
    <path fill="#fff" d="M55.833 11.723a2.929 2.929 0 0 0-2.931 2.93v-4.396a2.93 2.93 0 0 1 5.861 0v4.396a2.93 2.93 0 0 0-2.93-2.93z" opacity=".75"/>
    <path fill="#2C4B75" d="M55.833 14.653a2.93 2.93 0 0 1-2.931-2.93v4.395a2.93 2.93 0 0 0 5.861 0v-4.395a2.93 2.93 0 0 1-2.93 2.93z" opacity=".2"/>
    <path fill="#6D6DAA" d="M55.833 20.514a4.4 4.4 0 0 1-4.396-4.396v-5.86a4.396 4.396 0 1 1 8.791 0v5.86a4.4 4.4 0 0 1-4.395 4.396zm0-11.722a1.467 1.467 0 0 0-1.466 1.465v5.861a1.465 1.465 0 0 0 2.93 0v-5.86a1.467 1.467 0 0 0-1.464-1.466z"/>
</svg>
